<?xml version="1.0" encoding="utf-8"?>
<!-- Generator: Adobe Illustrator 23.0.0, SVG Export Plug-In . SVG Version: 6.00 Build 0)  -->
<svg version="1.0" id="Capa_1" xmlns="http://www.w3.org/2000/svg" xmlns:xlink="http://www.w3.org/1999/xlink" x="0px" y="0px"
	 viewBox="0 0 500 500" style="enable-background:new 0 0 500 500;" xml:space="preserve">
<style type="text/css">
	.st0{fill:url(#SVGID_1_);}
	.st1{opacity:0.55;fill:#FBB040;}
</style>
<g>
	<linearGradient id="SVGID_1_" gradientUnits="userSpaceOnUse" x1="182.876" y1="44.0154" x2="347.7605" y2="612.3403">
		<stop  offset="0" style="stop-color:#D367A5"/>
		<stop  offset="0.191" style="stop-color:#F4A4C6"/>
		<stop  offset="0.3427" style="stop-color:#F6B3CF"/>
		<stop  offset="0.6629" style="stop-color:#E68BB9"/>
		<stop  offset="0.8" style="stop-color:#DA79AE"/>
		<stop  offset="1" style="stop-color:#DA79AE"/>
	</linearGradient>
	<path class="st0" d="M46.74,59.68l-8.21,401.67c0,0,343.22,29.67,407.76-18.64c12.03-18.78,6.01-384.96,6.01-384.96L46.74,59.68z"
		/>
	<polygon class="st1" points="6.24,114.22 3.67,119.77 9.64,118.44 7.07,123.99 13.04,122.67 10.46,128.22 16.44,126.9 
		13.86,132.45 19.84,131.13 17.26,136.68 23.24,135.36 20.66,140.91 26.64,139.59 24.06,145.14 30.03,143.82 27.46,149.37 
		33.43,148.05 30.86,153.6 36.83,152.27 34.26,157.82 40.23,156.5 37.66,162.05 43.63,160.73 40.99,166.41 171.48,61.53 
		171.44,61.48 165.46,62.8 168.04,57.25 162.07,58.57 164.64,53.03 158.67,54.35 161.24,48.8 155.27,50.12 157.84,44.57 
		151.87,45.89 154.44,40.34 148.47,41.66 151.04,36.11 145.07,37.43 147.64,31.88 141.67,33.2 144.25,27.65 138.27,28.97 
		140.85,23.42 134.87,24.74 137.45,19.19 131.47,20.52 134.05,14.97 128.07,16.29 129.5,13.21 2.93,114.95 	"/>
	<polygon class="st1" points="369.94,18.94 363.94,17.74 366.63,23.24 360.63,22.03 363.31,27.53 357.31,26.33 360,31.83 354,30.62 
		356.68,36.12 350.68,34.92 353.37,40.42 347.37,39.22 350.05,44.71 344.05,43.51 346.74,49.01 340.74,47.81 343.42,53.3 
		337.42,52.1 340.11,57.6 334.11,56.4 336.79,61.9 330.8,60.69 333.48,66.19 327.34,64.96 459.88,167.23 459.92,167.18 
		457.23,161.68 463.23,162.88 460.55,157.39 466.55,158.59 463.86,153.09 469.86,154.29 467.18,148.8 473.18,150 470.49,144.5 
		476.49,145.7 473.81,140.2 479.8,141.41 477.12,135.91 483.12,137.11 480.43,131.61 486.43,132.82 483.75,127.32 489.75,128.52 
		487.06,123.02 493.06,124.23 490.38,118.73 496.38,119.93 493.69,114.43 497.02,115.1 368.45,15.89 	"/>
</g>
<g>
	<path d="M56.39,293.45c-1.24-0.91-1.46-1.93-0.65-3.06c0.81-1.13,1.99-2.22,3.55-3.26c1.56-1.04,3.18-1.96,4.89-2.74
		c1.7-0.78,2.83-1.28,3.38-1.49c2.69-1.31,5.4-2.58,8.11-3.81c2.71-1.23,5.44-2.37,8.19-3.44c3.48-1.23,6.97-2.34,10.47-3.33
		c3.5-0.98,7.07-1.9,10.73-2.74c0.49-0.11,0.79,0.09,0.92,0.62c0.12,0.53-0.06,0.85-0.55,0.96c-3.17,0.73-6.35,1.54-9.53,2.4
		c-3.18,0.87-6.32,1.83-9.41,2.89c-3.18,1.08-6.44,2.35-9.78,3.81c-1.25,0.54-2.46,1.13-3.64,1.74c-1.19,0.62-2.4,1.2-3.64,1.74
		c-1.31,0.65-2.58,1.26-3.81,1.85c-1.23,0.59-2.5,1.24-3.78,1.97c-0.14,0.12-0.54,0.36-1.18,0.72c-0.64,0.36-1.27,0.79-1.89,1.27
		c-0.62,0.49-1.1,0.96-1.47,1.43c-0.36,0.47-0.38,0.84-0.06,1.11c0.5,0.31,0.59,0.7,0.27,1.16
		C57.17,293.72,56.8,293.79,56.39,293.45z M134.59,313.85c-4.82,1.37-9.63,2.68-14.44,3.92c-4.81,1.24-9.57,2.75-14.3,4.54
		c-2.53,0.93-5.02,1.98-7.49,3.15c-2.47,1.17-4.93,2.38-7.38,3.64c-2.14,1.1-4.28,2.21-6.42,3.35c-2.13,1.14-4.25,2.33-6.36,3.59
		c-0.96,0.65-1.93,1.28-2.9,1.89c-0.97,0.61-1.94,1.24-2.9,1.89c0.58-5.62,1.17-11.21,1.76-16.79c0.59-5.57,0.96-11.16,1.12-16.76
		c2.53-1.27,5.08-2.46,7.65-3.57c2.57-1.11,5.2-2.15,7.88-3.11c0.55-0.21,0.76-0.58,0.64-1.11c-0.12-0.53-0.46-0.69-1.01-0.47
		c-2.53,0.93-5.06,1.92-7.59,2.98c-2.54,1.06-5.03,2.22-7.48,3.47c0.03-2.83-0.02-5.65-0.16-8.44c-0.13-2.8-0.32-5.62-0.55-8.48
		c-0.09-0.41-0.33-0.61-0.72-0.61c-0.38,0.01-0.67,0.16-0.86,0.46c-0.93,1.16-1.79,2.34-2.58,3.55c-0.79,1.21-1.54,2.5-2.25,3.86
		c-0.31,0.5-0.24,0.89,0.21,1.17c0.45,0.28,0.83,0.17,1.14-0.33c0.54-0.98,1.11-1.95,1.7-2.9c0.59-0.95,1.22-1.84,1.88-2.68
		c0.5,5.11,0.64,10.17,0.44,15.18l-2.76,1.41c-0.84,0.45-1.7,0.91-2.57,1.37c-0.88,0.46-1.73,0.96-2.54,1.49
		c-0.8,0.61-1.64,1.24-2.52,1.87c-0.88,0.63-1.57,1.35-2.07,2.15c-0.31,0.5-0.24,0.89,0.21,1.17c0.45,0.28,0.83,0.17,1.14-0.33
		c0.5-0.8,1.19-1.5,2.08-2.09c0.89-0.59,1.74-1.15,2.56-1.69c0.75-0.43,1.51-0.86,2.27-1.3c0.76-0.43,1.51-0.86,2.27-1.3
		c0.31-0.16,0.62-0.29,0.93-0.41c0.31-0.12,0.66-0.3,1.03-0.56c-0.19,5.1-0.52,10.12-1,15.07c-0.48,4.95-1,9.93-1.55,14.94
		c-0.24,0.83-0.4,1.59-0.5,2.3c-0.09,0.71-0.23,1.42-0.4,2.15c-0.66,0.49-1.3,1.03-1.94,1.61c-0.64,0.58-1.23,1.14-1.79,1.7
		c-0.76,0.78-1.47,1.69-2.13,2.74c-0.65,1.05-0.93,2.16-0.83,3.34c0.06,1.01,0.51,1.85,1.35,2.51c0.84,0.66,1.74,0.67,2.7,0.02
		c0.51-0.38,0.89-0.85,1.15-1.42c0.25-0.57,0.48-1.14,0.7-1.7l0.34,1.46c0.11,0.49,0.4,0.7,0.85,0.64c0.46-0.06,0.72-0.32,0.79-0.76
		c0.13-1.66,0.25-3.27,0.36-4.84c0.11-1.57,0.28-3.15,0.51-4.74c0.12-0.2,0.3-0.35,0.54-0.45c0.23-0.1,0.45-0.26,0.66-0.47
		c2.13-1.52,4.33-2.95,6.58-4.29c2.26-1.34,4.53-2.61,6.82-3.83c2.21-1.2,4.44-2.36,6.71-3.48c2.26-1.13,4.52-2.2,6.76-3.24
		c5.59-2.5,11.31-4.51,17.16-6.03c5.85-1.53,11.67-3.13,17.44-4.82c0.55-0.21,0.76-0.58,0.64-1.11
		C135.47,313.8,135.13,313.64,134.59,313.85z M66.3,352.29c-0.57,0.13-0.92-0.19-1.06-0.97c-0.14-0.78-0.15-1.31-0.05-1.6
		c0.24-0.82,0.62-1.58,1.15-2.26c0.53-0.68,1.07-1.3,1.63-1.85c0.29-0.24,0.55-0.49,0.79-0.76c0.24-0.27,0.54-0.53,0.91-0.79
		c-0.19,0.64-0.37,1.28-0.52,1.92c-0.15,0.63-0.33,1.27-0.52,1.92c-0.21,0.56-0.5,1.38-0.85,2.44
		C67.43,351.41,66.94,352.06,66.3,352.29z"/>
	<path d="M118.9,308.24c0.45-0.27,0.82-0.17,1.1,0.32c0.28,0.49,0.16,0.88-0.37,1.18c-1.47,0.69-2.98,1.19-4.53,1.5
		c-1.55,0.32-3.13,0.71-4.74,1.16c-1.53,0.44-3.11,0.98-4.76,1.62s-2.9,1.7-3.76,3.18c-0.17,0.38-0.46,0.51-0.87,0.39
		c-0.41-0.12-0.63-0.39-0.64-0.82c0.01-0.34,0.02-0.67,0.03-0.97c0.01-0.3,0.03-0.59,0.06-0.85c-0.46,0.96-1.17,1.81-2.11,2.54
		c-0.51,0.38-1.11,0.58-1.79,0.61c-0.68,0.03-1.17-0.26-1.49-0.88c-0.39-0.59-0.53-1.29-0.42-2.09c0.12-0.8,0.4-1.5,0.86-2.13
		c0.52-0.72,1.21-1.31,2.09-1.77c0.88-0.46,1.75-0.66,2.62-0.61l-0.03-0.12c0.3-1.27,0.58-2.58,0.83-3.92
		c0.25-1.34,0.47-2.68,0.68-4.01c0.22-2.02,0.21-3.99-0.02-5.9c-0.23-1.92-0.2-3.89,0.1-5.93c0.07-0.44,0.31-0.69,0.73-0.75
		c0.42-0.05,0.68,0.16,0.79,0.65c0.7,1.89,0.91,3.86,0.66,5.88c-0.26,2.03-0.46,4.05-0.59,6.05c-0.09,1.48-0.23,2.99-0.43,4.53
		c-0.2,1.54-0.38,3.06-0.55,4.56l0.62,1.01c0.26,0.37,0.24,0.67-0.05,0.91c-0.29,0.24-0.56,0.35-0.83,0.32
		c0.02,0.08,0.01,0.15-0.02,0.2c-0.03,0.05-0.04,0.12-0.02,0.2c0.92-0.81,1.94-1.43,3.04-1.86c1.1-0.42,2.21-0.81,3.33-1.16
		c1.75-0.58,3.53-1.03,5.33-1.37C115.58,309.61,117.29,309.05,118.9,308.24z M98.85,314.3c0.19-0.3,0.35-0.61,0.49-0.95
		c0.14-0.33,0.25-0.68,0.34-1.04c-0.93,0.05-1.8,0.46-2.6,1.25c-0.8,0.79-1.06,1.62-0.77,2.49c0.09,0.41,0.26,0.56,0.49,0.46
		c0.23-0.1,0.49-0.28,0.77-0.56c0.28-0.28,0.55-0.58,0.82-0.9C98.65,314.74,98.81,314.49,98.85,314.3z"/>
	<path d="M156.73,301.91c-1.53,0.78-3.12,1.51-4.76,2.19c-1.64,0.68-3.28,1.38-4.91,2.1c-1.1,0.42-2.28,0.89-3.53,1.4
		c-1.25,0.5-2.5,0.86-3.74,1.06c-0.93,0.04-1.71-0.1-2.34-0.42c-0.63-0.32-1.01-0.94-1.14-1.85l0.09-0.15
		c-0.44,0.7-0.96,1.38-1.58,2.04c-0.27,0.32-0.59,0.67-0.97,1.06c-0.38,0.39-0.82,0.72-1.31,1.01c-0.49,0.28-0.99,0.44-1.5,0.47
		c-0.51,0.03-0.97-0.12-1.39-0.45c-0.54-0.47-0.86-1.04-0.97-1.7c-0.11-0.66-0.09-1.39,0.07-2.2c-1.3,1.42-2.72,2.67-4.27,3.75
		c-1.55,1.09-3.14,2.16-4.77,3.23c-0.45,0.28-0.82,0.17-1.1-0.32c-0.28-0.49-0.2-0.87,0.25-1.15c2.55-1.53,4.95-3.22,7.17-5.07
		c2.23-1.84,4.02-4.08,5.38-6.71c0.23-0.48,0.59-0.61,1.07-0.38c0.48,0.23,0.61,0.59,0.38,1.07c-0.29,0.58-0.57,1.16-0.82,1.73
		c-0.25,0.57-0.52,1.19-0.79,1.85c-0.21,0.56-0.49,1.31-0.83,2.25c-0.34,0.94-0.32,1.66,0.05,2.17c0.17,0.39,0.47,0.47,0.89,0.24
		c0.42-0.23,0.86-0.54,1.32-0.95c0.46-0.41,0.86-0.82,1.19-1.24c0.33-0.42,0.56-0.73,0.68-0.93c0.71-1.02,1.29-2.08,1.77-3.17
		c0.47-1.09,0.97-2.17,1.5-3.24c0.25-0.4,0.58-0.54,0.99-0.42c0.41,0.12,0.58,0.4,0.52,0.84c-0.04,0.95-0.26,1.86-0.65,2.72
		c-0.4,0.86-0.62,1.77-0.65,2.72c-0.03,0.61,0.06,1.01,0.28,1.22c0.22,0.21,0.52,0.31,0.91,0.3c0.38,0,0.81-0.1,1.28-0.3
		c0.47-0.19,0.9-0.34,1.31-0.43c2.48-0.75,4.89-1.63,7.22-2.64c2.33-1.01,4.66-2.04,6.99-3.1c0.45-0.28,0.82-0.17,1.1,0.32
		C157.42,301.35,157.28,301.7,156.73,301.91z"/>
	<path d="M216.91,231.83c3.38-1.3,6.83-1.75,10.34-1.37c3.51,0.39,6.66,1.75,9.43,4.11c3.17,2.6,5.46,5.63,6.86,9.07
		c1.4,3.45,2.12,7.04,2.18,10.8c0.06,3.75-0.44,7.53-1.48,11.33c-1.05,3.8-2.4,7.3-4.05,10.51c-0.77,1.46-1.58,2.89-2.41,4.28
		c-0.83,1.39-1.73,2.8-2.68,4.22c0.32-0.08,1.62-0.48,3.89-1.22c2.27-0.74,4.72-1.54,7.34-2.41c2.63-0.87,5.07-1.69,7.33-2.47
		c2.26-0.78,3.55-1.21,3.88-1.28c0.47-0.19,0.76-0.03,0.89,0.5c0.12,0.53-0.05,0.89-0.52,1.08c-0.33,0.08-1.13,0.33-2.4,0.75
		c-1.27,0.42-2.76,0.92-4.47,1.49c-1.71,0.57-3.51,1.18-5.42,1.83c-1.9,0.65-3.71,1.26-5.42,1.83c-1.71,0.57-3.2,1.06-4.47,1.49
		c-1.27,0.42-2.07,0.67-2.4,0.75c-1.95,2.68-4.26,5.27-6.93,7.77c-1.48,1.37-3.06,2.7-4.73,3.99c-1.67,1.29-3.38,2.43-5.11,3.43
		c-0.61,0.31-1.25,0.63-1.9,0.95c-0.65,0.32-1.34,0.61-2.05,0.86c-0.69,7.01-1.4,13.98-2.15,20.92c-0.75,6.94-1.38,13.89-1.91,20.87
		c-0.07,0.44-0.33,0.7-0.79,0.76c-0.46,0.06-0.73-0.11-0.83-0.52l-1.27-5.48c-0.13-0.57,0.09-0.92,0.66-1.05
		c0.57-0.13,0.92,0.09,1.05,0.66l0.03,0.12c0.49-6.02,1.05-11.98,1.7-17.86c0.65-5.89,1.25-11.85,1.82-17.89
		c-1.38,0.32-2.59,0.3-3.61-0.06c-1.45-0.35-2.45-1.15-2.99-2.39c-0.55-1.24-0.73-2.57-0.54-3.99c0.07-0.79,0.39-1.46,0.95-2.02
		c0.55-0.56,1.17-1.04,1.85-1.46c0.67-0.41,1.4-0.77,2.19-1.08c0.78-0.31,1.49-0.58,2.12-0.81c0.14-0.12,0.34-0.21,0.58-0.26
		c0.24-0.06,0.44-0.14,0.58-0.26c0.62-7.68,1.01-15.31,1.18-22.88s-0.16-15.16-0.98-22.77c-0.04,0.18-0.1,0.3-0.17,0.36
		c-0.07,0.06-0.17,0.19-0.29,0.39c-0.33,0.42-0.72,0.49-1.17,0.21c-0.45-0.28-0.52-0.67-0.21-1.17c0.33-0.42,0.63-0.81,0.88-1.17
		c0.26-0.36,0.54-0.79,0.86-1.29c0.21-0.22,0.5-0.33,0.89-0.33c0.38,0,0.62,0.2,0.72,0.6c0.89,7.93,1.28,15.85,1.14,23.75
		c-0.14,7.91-0.52,15.83-1.17,23.78c3.08-1.14,6.17-2.18,9.3-3.12s6.23-1.94,9.32-3c3.04-3.87,5.61-8.11,7.71-12.71
		c1.64-3.63,2.85-7.47,3.63-11.5c0.78-4.03,0.74-8.05-0.1-12.05c-0.41-1.79-1.03-3.59-1.83-5.42c-0.81-1.82-1.8-3.5-2.96-5.03
		c-1.17-1.53-2.55-2.86-4.13-3.99c-1.59-1.13-3.34-1.94-5.25-2.44c-3.75-1.01-7.44-0.86-11.07,0.45c-3.63,1.31-6.71,3.38-9.23,6.18
		c-2.44,2.79-4.33,5.91-5.67,9.34c-1.34,3.44-2.33,6.94-2.96,10.51c-0.13,0.54-0.45,0.75-0.95,0.61c-0.5-0.14-0.73-0.47-0.68-1
		c0.42-2.24,0.95-4.41,1.57-6.53c0.62-2.11,1.43-4.18,2.41-6.21c1.51-3.09,3.4-5.91,5.68-8.45
		C210.79,234.9,213.59,233.03,216.91,231.83z M210.8,302.99c0.08-0.02,0.14-0.05,0.17-0.1c0.03-0.05,0.09-0.08,0.17-0.1
		c0.09-1.48,0.2-2.92,0.35-4.32c0.14-1.4,0.3-2.85,0.47-4.35c-0.63,0.23-1.22,0.45-1.77,0.67c-0.55,0.21-1.09,0.47-1.62,0.76
		c-0.61,0.31-1.29,0.7-2.04,1.18c-0.75,0.47-1.16,1.1-1.23,1.89c-0.01,0.69,0.05,1.44,0.2,2.26c0.15,0.82,0.6,1.4,1.37,1.74
		c0.6,0.38,1.24,0.57,1.93,0.58C209.48,303.21,210.15,303.14,210.8,302.99z M230.45,288.03c-2.71,0.88-5.39,1.76-8.06,2.64
		c-2.67,0.88-5.39,1.77-8.18,2.67c-0.33,0.08-0.52,0.16-0.58,0.26c-0.17,1.49-0.33,2.94-0.47,4.35c-0.15,1.4-0.26,2.84-0.35,4.32
		c1.42-0.5,2.79-1.16,4.1-1.98c1.31-0.82,2.58-1.71,3.81-2.68c2.67-2.16,5.2-4.54,7.59-7.16L230.45,288.03z"/>
	<path d="M285.49,271.16c0.35-0.34,0.68-0.29,1,0.15c0.31,0.44,0.3,0.83-0.05,1.17c-2.74,2.6-5.96,4.57-9.68,5.9
		c-3.72,1.33-7.5,1.63-11.35,0.9c-0.07,0.44-0.26,0.74-0.56,0.9c-0.48,0.88-1.2,1.67-2.15,2.36c-0.95,0.69-2.03,0.84-3.24,0.43
		c-1.29-0.39-2.1-1.12-2.44-2.2c-0.33-1.08-0.39-2.24-0.17-3.49c0.05-0.53,0.36-0.75,0.94-0.67c0.57,0.08,0.8,0.39,0.67,0.94
		c-0.2,0.99-0.12,1.96,0.22,2.9c0.35,0.95,1.17,1.27,2.47,0.97c0.55-0.21,1.05-0.54,1.5-0.99c0.45-0.45,0.83-0.92,1.15-1.42
		c-1.01-0.28-2.12-0.66-3.35-1.15c-1.23-0.49-2.17-1.21-2.82-2.17c-0.55-0.9-0.56-1.69-0.04-2.37c0.53-0.68,1.24-1.12,2.13-1.33
		c1.14-0.26,2.32-0.34,3.54-0.24c1.22,0.1,2.06,0.74,2.5,1.92c0.63,1.23,0.73,2.57,0.3,4.04c0.62,0.11,1.26,0.18,1.91,0.2
		c0.65,0.02,1.31,0.04,2,0.05c2.96-0.17,5.73-0.86,8.32-2.06C280.9,274.71,283.29,273.12,285.49,271.16z M258.88,274.37
		c0.07,0.67,0.61,1.23,1.61,1.68c1,0.45,1.79,0.79,2.35,1c0.2,0.13,0.45,0.2,0.75,0.21c0.3,0.02,0.6,0.08,0.88,0.18
		c0.17-0.72,0.23-1.49,0.18-2.29c-0.06-0.8-0.46-1.33-1.2-1.58c-0.18-0.04-0.52-0.09-1-0.15c-0.48-0.06-1.02-0.06-1.61-0.01
		c-0.59,0.05-1.08,0.17-1.46,0.34C258.99,273.92,258.82,274.13,258.88,274.37z"/>
	<path d="M315.24,265.41c-2.76,1.75-5.72,3.21-8.88,4.37c-1.81,0.68-3.66,1.21-5.54,1.61c-1.88,0.39-3.75,0.81-5.62,1.24
		c-0.57,0.13-0.92-0.07-1.04-0.59c-0.12-0.53,0.1-0.86,0.67-0.99c0.08-0.02,0.36-0.13,0.82-0.32c0.47-0.19,0.91-0.42,1.32-0.69
		c0.41-0.27,0.73-0.53,0.97-0.8c0.24-0.27,0.21-0.46-0.07-0.56c-0.48-0.23-0.99-0.3-1.53-0.22c-0.54,0.08-1.03,0.09-1.47,0.02
		c-0.16,0.04-0.36-0.09-0.6-0.38c-1.25,0.89-2.53,1.74-3.84,2.56c-1.31,0.82-2.72,1.49-4.22,2.01c-0.47,0.19-0.76,0.03-0.89-0.5
		c-0.12-0.53,0.05-0.89,0.52-1.08c1.83-0.6,3.52-1.46,5.05-2.58c1.54-1.13,3.14-2.14,4.82-3.04c0.94-0.73,2.1-1.26,3.49-1.58
		c0.57-0.13,0.92,0.07,1.04,0.59c0.12,0.53-0.1,0.86-0.67,0.99c-0.47,0.19-0.96,0.37-1.48,0.54c-0.52,0.17-1,0.38-1.45,0.66
		l-0.19,0.3c0.77-0.01,1.49,0.06,2.17,0.2c0.68,0.14,1.04,0.68,1.08,1.61c0.01,0.43-0.11,0.84-0.35,1.24
		c2.31-0.36,4.37-0.89,6.19-1.56c3.06-1.22,6.06-2.69,9-4.4c0.45-0.28,0.79-0.18,1.03,0.27C315.8,264.77,315.7,265.14,315.24,265.41
		z M342.65,260.6c-1.2,0.71-2.35,1.43-3.46,2.17c-1.11,0.73-2.31,1.42-3.61,2.07c-1,0.49-1.99,0.98-2.99,1.47
		c-0.99,0.49-2,0.94-3.01,1.35c-1.64,0.64-2.92,1-3.84,1.08s-1.91,0.03-2.98-0.15c-1.23-0.15-2.37-0.66-3.43-1.55
		c-1.06-0.88-1.57-1.98-1.53-3.29c-0.94,1.09-2.09,1.83-3.45,2.23c-0.46,0.2-0.76,0.03-0.88-0.51c-0.12-0.54,0.05-0.9,0.51-1.1
		c1.17-0.44,2.14-1.14,2.9-2.1c0.76-0.96,1.44-1.98,2.04-3.08c-0.49,0.11-0.98,0.21-1.47,0.28s-0.99,0.12-1.5,0.15
		c-0.61-0.03-0.89-0.33-0.85-0.91c0.04-0.57,0.32-0.83,0.84-0.78c0.69,0.01,1.33-0.05,1.94-0.19c0.61-0.14,1.23-0.29,1.88-0.44
		c0.52-1.07,0.98-2.2,1.39-3.38c0.41-1.18,0.82-2.33,1.24-3.47c0.23-0.49,0.57-0.65,1.03-0.5c0.46,0.15,0.63,0.51,0.5,1.05
		c-0.2,1-0.42,1.94-0.69,2.83c-0.26,0.88-0.54,1.79-0.84,2.73c1.58-0.54,3.1-1.15,4.56-1.84c1.46-0.69,2.96-1.38,4.51-2.09
		c0.47-0.19,0.84-0.06,1.11,0.39c0.28,0.46,0.15,0.83-0.38,1.13c-1.77,0.84-3.52,1.64-5.27,2.39c-1.74,0.75-3.53,1.43-5.35,2.02
		c-0.21,0.57-0.42,1.12-0.64,1.65s-0.49,1.04-0.79,1.55c-0.33,0.77-0.4,1.59-0.2,2.45s0.81,1.48,1.84,1.85
		c0.92,0.31,1.62,0.47,2.09,0.49c0.47,0.02,1.34-0.03,2.59-0.14c2.89-0.76,5.58-1.77,8.06-3.04c2.48-1.27,4.94-2.71,7.38-4.31
		c0.45-0.28,0.79-0.16,1.04,0.35C343.2,259.93,343.1,260.32,342.65,260.6z"/>
	<path d="M361.28,253.45c-1.37,0.75-2.74,1.41-4.1,1.98c-1.37,0.57-2.76,1.11-4.19,1.61c-0.88,0.29-1.79,0.59-2.75,0.89
		c-0.96,0.31-1.9,0.48-2.83,0.53c-1.56-0.07-2.46-0.56-2.72-1.49c-0.26-0.92-0.32-2-0.17-3.24c-0.69,1.1-1.33,2.3-1.93,3.59
		c-0.6,1.29-1.24,2.49-1.93,3.59c-0.31,0.5-0.69,0.61-1.14,0.33c-0.45-0.28-0.52-0.67-0.21-1.17c1.06-1.7,1.99-3.43,2.78-5.2
		c0.79-1.77,1.86-3.41,3.23-4.92c0.29-0.24,0.62-0.29,0.99-0.16c0.37,0.13,0.52,0.41,0.46,0.86c-0.09,0.71-0.23,1.4-0.42,2.09
		c-0.18,0.69-0.32,1.38-0.42,2.09c0.01,0.43,0.04,0.83,0.09,1.2c0.04,0.38,0.29,0.6,0.73,0.67c0.36,0.09,0.73,0.11,1.11,0.06
		c0.38-0.04,0.76-0.11,1.17-0.21c2.01-0.55,3.96-1.22,5.83-1.99c1.88-0.78,3.74-1.59,5.6-2.45c0.45-0.28,0.82-0.17,1.1,0.32
		C361.84,252.92,361.75,253.26,361.28,253.45z M347.41,244.6c-0.49,0.11-0.8-0.11-0.93-0.68c-0.13-0.57,0.04-0.91,0.53-1.02
		l1.22-0.28c0.57-0.13,0.92,0.09,1.05,0.66c0.13,0.57-0.09,0.92-0.66,1.05L347.41,244.6z"/>
	<path d="M384.49,248.84c-1.91,1.39-3.9,2.49-5.97,3.31c-2.08,0.82-4.15,1.78-6.21,2.85c-1.53,0.78-3.2,1.51-5.01,2.19
		c-1.81,0.68-3.62,0.84-5.41,0.48c-0.54-0.13-1.08-0.33-1.61-0.59c-0.53-0.26-0.97-0.59-1.32-0.98c-0.35-0.39-0.53-0.82-0.55-1.28
		c-0.02-0.47,0.2-1.01,0.65-1.63c0.66-0.84,1.53-1.51,2.62-2.02c1.08-0.51,2.09-0.78,3.02-0.83c0.69,0.01,0.94,0.38,0.77,1.11
		c0.02,0.08,0.01,0.15-0.02,0.2c-0.03,0.05-0.04,0.12-0.02,0.2c-0.11,0.28-0.32,0.46-0.65,0.54l-0.61,0.14l-0.12,0.03
		c-0.24,0.06-0.52-0.01-0.82-0.2c-0.63,0.23-1.23,0.52-1.79,0.87c-0.56,0.34-0.96,0.76-1.19,1.24c-0.29,0.58-0.07,0.98,0.66,1.19
		c0.73,0.22,1.32,0.36,1.77,0.43c1.49,0.17,2.95-0.04,4.35-0.62c1.42-0.5,2.83-1.11,4.21-1.81c1.38-0.71,2.77-1.35,4.18-1.93
		c1.47-0.68,2.9-1.34,4.3-1.96c1.4-0.62,2.71-1.42,3.94-2.39c0.45-0.27,0.82-0.17,1.1,0.32
		C385.02,248.19,384.94,248.57,384.49,248.84z"/>
	<path d="M413.58,242.48c0.35-0.34,0.72-0.31,1.11,0.07c0.39,0.38,0.41,0.74,0.06,1.08c-1.61,1.57-3.26,3-4.98,4.3
		c-1.71,1.29-3.73,2.13-6.04,2.49c-1.08,0.16-2.23,0.17-3.46,0.03c-1.23-0.14-2.45-0.33-3.66-0.56c-1.21-0.23-2.3-0.5-3.26-0.78
		c-0.97-0.29-1.68-0.51-2.14-0.66c-0.94-0.38-1.89-0.67-2.84-0.88c-0.95-0.21-1.91-0.2-2.88,0.03l-0.19,0.3
		c-0.04,0.18-0.09,0.34-0.15,0.48c-0.05,0.14-0.1,0.3-0.14,0.48c-0.13,0.2-0.16,0.32-0.11,0.35c0.05,0.03,0.02-0.02-0.1-0.17
		c0.26,0.37,0.2,0.68-0.17,0.94c-0.14,1.23-0.33,2.45-0.56,3.66c-0.23,1.21-0.61,2.35-1.13,3.41c-0.17,0.38-0.46,0.53-0.86,0.46
		c-0.4-0.08-0.64-0.28-0.72-0.61c-0.24-1.4-0.21-2.84,0.09-4.32c0.3-1.48,0.72-2.89,1.27-4.21c0.09-0.36,0.3-0.92,0.64-1.69
		c0.14-1.23,0.29-2.51,0.46-3.83c0.16-1.32,0.35-2.65,0.55-3.98c0.4-3.43,0.82-6.91,1.24-10.43c0.42-3.52,1.14-6.99,2.15-10.39
		c0.17-0.38,0.39-0.9,0.66-1.57c0.27-0.66,0.61-1.25,1-1.77c0.39-0.52,0.85-0.86,1.37-1.02c0.52-0.16,1.1,0.03,1.74,0.56
		c0.68,0.7,1.07,1.55,1.17,2.55c0.1,1,0.13,1.94,0.07,2.81c0.04,1.28,0,2.57-0.13,3.88c-0.13,1.31-0.3,2.59-0.52,3.85
		c-0.16,0.81-0.31,1.63-0.45,2.48c-0.15,0.85-0.35,1.64-0.6,2.39c-0.22,0.91-0.53,1.79-0.93,2.65c-0.4,0.86-0.8,1.73-1.2,2.59
		c-0.29,0.58-0.57,1.16-0.82,1.73c-0.25,0.57-0.52,1.19-0.79,1.85c0.92-0.47,1.82-0.64,2.71-0.5c0.44,0.07,0.74,0.34,0.9,0.82
		c0.15,0.48,0.2,0.94,0.13,1.38c-0.32,0.84-0.74,1.52-1.26,2.03c-0.52,0.51-1.13,0.93-1.83,1.26l0.82,0.2
		c0.46,0.15,1.31,0.38,2.54,0.7c1.23,0.31,2.52,0.63,3.88,0.96c1.36,0.33,2.64,0.59,3.84,0.78c1.2,0.19,2.05,0.27,2.56,0.24
		c2.45-0.14,4.49-0.85,6.12-2.13C410.36,245.48,411.97,244.05,413.58,242.48z M389.57,217.61c-0.71,2.13-1.24,4.33-1.62,6.6
		c-0.37,2.27-0.72,4.56-1.04,6.86c-0.22,2.02-0.45,4.04-0.71,6.07c-0.26,2.03-0.53,4.06-0.83,6.1c0.08-0.02,0.15-0.08,0.22-0.18
		c0.63-1.34,1.25-2.71,1.88-4.09c0.62-1.38,1.24-2.79,1.85-4.22c1.01-2.29,1.72-4.68,2.13-7.17c0.41-2.49,0.66-4.99,0.77-7.5
		c-0.04-0.16-0.05-0.5-0.04-1.02c0.01-0.52-0.01-1.07-0.06-1.66c-0.05-0.58-0.17-1.07-0.34-1.46c-0.18-0.39-0.44-0.58-0.78-0.59
		c-0.08,0.02-0.15,0.08-0.22,0.18l-0.28,0.45C390.21,216.3,389.91,216.85,389.57,217.61z M388.23,242.84
		c-0.29,0.24-0.7,0.67-1.24,1.31c-0.14,0.12-0.26,0.36-0.35,0.72c-0.13,0.2-0.21,0.39-0.25,0.57c0.71-0.25,1.39-0.56,2.03-0.92
		c0.64-0.36,1.18-0.89,1.62-1.6c0.44-0.7,0.3-0.92-0.41-0.67C389.31,242.33,388.84,242.53,388.23,242.84z"/>
	<path d="M440.3,236.42c-2.76,1.75-5.72,3.21-8.88,4.37c-1.81,0.68-3.66,1.21-5.54,1.6c-1.88,0.39-3.75,0.81-5.62,1.24
		c-0.57,0.13-0.91-0.07-1.04-0.59c-0.12-0.53,0.1-0.86,0.67-0.99c0.08-0.02,0.36-0.13,0.83-0.32c0.47-0.19,0.91-0.42,1.32-0.69
		c0.41-0.27,0.73-0.53,0.97-0.8c0.24-0.27,0.22-0.46-0.07-0.56c-0.48-0.23-0.99-0.3-1.53-0.22c-0.54,0.08-1.03,0.09-1.47,0.02
		c-0.16,0.04-0.36-0.09-0.6-0.38c-1.25,0.89-2.53,1.74-3.84,2.56s-2.72,1.49-4.22,2.01c-0.47,0.19-0.76,0.03-0.89-0.5
		c-0.12-0.53,0.05-0.89,0.52-1.08c1.83-0.59,3.52-1.46,5.05-2.58c1.54-1.13,3.14-2.14,4.82-3.04c0.94-0.73,2.1-1.26,3.49-1.58
		c0.57-0.13,0.91,0.07,1.04,0.59c0.12,0.53-0.1,0.86-0.67,0.99c-0.47,0.19-0.96,0.37-1.48,0.54c-0.52,0.16-1,0.38-1.45,0.66
		l-0.19,0.3c0.77-0.01,1.49,0.06,2.17,0.2c0.68,0.14,1.04,0.68,1.08,1.61c0.01,0.43-0.11,0.84-0.36,1.24
		c2.31-0.37,4.38-0.89,6.19-1.56c3.06-1.22,6.06-2.69,9-4.4c0.45-0.28,0.79-0.18,1.03,0.27
		C440.86,235.77,440.75,236.14,440.3,236.42z"/>
</g>
</svg>
